<svg width="28" height="28" viewBox="0 0 28 28" fill="none" xmlns="http://www.w3.org/2000/svg">
<g clip-path="url(#clip0_73_862)">
<path d="M8.16683 27.9999C9.45549 27.9999 10.5002 26.9552 10.5002 25.6666C10.5002 24.3779 9.45549 23.3333 8.16683 23.3333C6.87816 23.3333 5.8335 24.3779 5.8335 25.6666C5.8335 26.9552 6.87816 27.9999 8.16683 27.9999Z" fill="white"/>
<path d="M19.8333 27.9999C21.122 27.9999 22.1667 26.9552 22.1667 25.6666C22.1667 24.3779 21.122 23.3333 19.8333 23.3333C18.5447 23.3333 17.5 24.3779 17.5 25.6666C17.5 26.9552 18.5447 27.9999 19.8333 27.9999Z" fill="white"/>
<path d="M21.1307 17.5H8.41983C8.32444 17.4992 8.23276 17.4629 8.16266 17.3982C8.09256 17.3335 8.04907 17.245 8.04067 17.15L7.042 9.33333H12.8333V5.83333H6.59517L6.2895 3.42883C6.17859 2.48433 5.7248 1.61341 5.01425 0.981351C4.30369 0.349293 3.38583 8.51692e-05 2.43483 0L0 0V3.5H2.43483C2.53023 3.50079 2.62191 3.53707 2.69201 3.60178C2.7621 3.66648 2.80559 3.75497 2.814 3.85L4.564 17.57C4.67466 18.5149 5.12851 19.3863 5.83933 20.0186C6.55016 20.6509 7.46846 21.0002 8.41983 21H23.8L25.725 14H22.0943L21.1307 17.5Z" fill="white"/>
<path d="M19.9138 11.7156H19.9605C20.7 11.7138 21.4089 11.4203 21.9333 10.899L28.0712 4.76112L25.5955 2.28662L19.9722 7.91112L17.7672 5.61512L15.2437 8.04179L17.927 10.8418C18.1833 11.1123 18.4911 11.329 18.8323 11.4791C19.1735 11.6291 19.5412 11.7095 19.9138 11.7156Z" fill="white"/>
</g>
<defs>
<clipPath id="clip0_73_862">
<rect width="28" height="28" fill="white"/>
</clipPath>
</defs>
</svg>
