<svg width="35" height="35" viewBox="0 0 35 35" fill="none" xmlns="http://www.w3.org/2000/svg">
<path d="M18.9583 13.125C17.3469 13.125 16.0417 11.8198 16.0417 10.2083V4.375H8.02083C6.01125 4.375 4.375 6.01125 4.375 8.02083V26.9792C4.375 28.9888 6.01125 30.625 8.02083 30.625H12.3958C13.6048 30.625 14.5833 31.6035 14.5833 32.8125C14.5833 34.0215 13.6048 35 12.3958 35H8.02083C3.59771 35 0 31.4023 0 26.9792V8.02083C0 3.59771 3.59771 0 8.02083 0H17.271C19.4133 0 21.4273 0.834167 22.9425 2.34938L26.8173 6.22417C28.3325 7.73938 29.1667 9.75187 29.1667 11.8956V13.8542C29.1667 15.0631 28.1881 16.0417 26.9792 16.0417C25.7702 16.0417 24.7917 15.0631 24.7917 13.8542V13.125H18.9583ZM34.2883 18.7381C33.0123 17.1777 30.7067 17.0917 29.3169 18.4815L19.3885 28.4098C18.2029 29.5954 17.5379 31.2025 17.5379 32.8781V34.2708C17.5379 34.6733 17.8646 35 18.2671 35H19.6598C21.3354 35 22.944 34.3335 24.1281 33.1494L33.9208 23.3567C35.1604 22.1171 35.3981 20.0958 34.2883 18.7381Z" fill="#326BD7"/>
</svg>
