<svg width="40" height="40" viewBox="0 0 40 40" fill="none" xmlns="http://www.w3.org/2000/svg">
<circle cx="20" cy="20" r="20" fill="#326BD7"/>
<g clip-path="url(#clip0_103_376)">
<path d="M27.5 10.8333H12.5C11.837 10.8333 11.2011 11.0967 10.7322 11.5655C10.2634 12.0344 10 12.6703 10 13.3333V29.1666H30V13.3333C30 12.6703 29.7366 12.0344 29.2678 11.5655C28.7989 11.0967 28.163 10.8333 27.5 10.8333ZM27.3117 13.3333L21.3658 19.2791C20.9979 19.6305 20.5087 19.8266 20 19.8266C19.4912 19.8266 19.0021 19.6305 18.6342 19.2791L12.6883 13.3333H27.3117ZM12.5 26.6666V16.6808L16.8658 21.0466C17.2773 21.4583 17.7658 21.7848 18.3035 22.0076C18.8412 22.2304 19.4176 22.3451 19.9996 22.3451C20.5816 22.3451 21.1579 22.2304 21.6956 22.0076C22.2333 21.7848 22.7219 21.4583 23.1333 21.0466L27.5 16.6808V26.6666H12.5Z" fill="white"/>
</g>
<defs>
<clipPath id="clip0_103_376">
<rect width="20" height="20" fill="white" transform="translate(10 10)"/>
</clipPath>
</defs>
</svg>
