<svg width="16" height="31" viewBox="0 0 16 31" fill="none" xmlns="http://www.w3.org/2000/svg">
<path d="M13.7248 10.995L3.97101 1.24126C3.57287 0.845472 3.03428 0.623322 2.47289 0.623322C1.91149 0.623322 1.37291 0.845472 0.974763 1.24126C0.77559 1.4388 0.617503 1.67383 0.509619 1.93278C0.401736 2.19173 0.346191 2.46948 0.346191 2.75001C0.346191 3.03053 0.401736 3.30828 0.509619 3.56723C0.617503 3.82618 0.77559 4.06121 0.974763 4.25876L10.7498 13.9913C10.9489 14.1888 11.107 14.4238 11.2149 14.6828C11.3228 14.9417 11.3783 15.2195 11.3783 15.5C11.3783 15.7805 11.3228 16.0583 11.2149 16.3172C11.107 16.5762 10.9489 16.8112 10.7498 17.0088L0.974763 26.7413C0.574617 27.1386 0.348699 27.6786 0.346706 28.2425C0.344714 28.8064 0.566812 29.348 0.96414 29.7481C1.36147 30.1483 1.90148 30.3742 2.46538 30.3762C3.02927 30.3782 3.57087 30.1561 3.97101 29.7588L13.7248 20.005C14.9186 18.8097 15.5892 17.1894 15.5892 15.5C15.5892 13.8106 14.9186 12.1903 13.7248 10.995Z" fill="#326BD7"/>
</svg>
