<svg width="40" height="40" viewBox="0 0 40 40" fill="none" xmlns="http://www.w3.org/2000/svg">
<circle cx="20" cy="20" r="20" fill="#326BD7"/>
<g clip-path="url(#clip0_103_375)">
<path d="M28.5668 12.7416L25.9251 10.1L20.7084 15.325L23.5501 18.1666C22.4084 20.7166 20.6418 22.4916 18.1751 23.5583L15.3334 20.7166L10.1001 25.925L12.7418 28.5666C13.6668 29.4916 14.9084 30 16.2501 30C22.2918 30 30.0001 22.2916 30.0001 16.25C30.0001 14.9083 29.4918 13.6666 28.5668 12.7416ZM16.2501 28.3333C15.3584 28.3333 14.5251 28 13.9251 27.3916L12.4584 25.925L15.3251 23.0583L17.7668 25.5L18.2751 25.3083C21.5751 24.05 23.9501 21.6833 25.3168 18.275L25.5251 17.7666L23.0834 15.3166L25.9501 12.45L27.4168 13.9166C28.0251 14.525 28.3584 15.35 28.3584 16.2416C28.3584 21.4333 21.4668 28.325 16.2751 28.325L16.2501 28.3333Z" fill="white"/>
</g>
<defs>
<clipPath id="clip0_103_375">
<rect width="20" height="20" fill="white" transform="translate(10 10)"/>
</clipPath>
</defs>
</svg>
