<svg width="16" height="31" viewBox="0 0 16 31" fill="none" xmlns="http://www.w3.org/2000/svg">
<path d="M2.27524 20.005L12.029 29.7587C12.4271 30.1545 12.9657 30.3767 13.5271 30.3767C14.0885 30.3767 14.6271 30.1545 15.0252 29.7587C15.2244 29.5612 15.3825 29.3262 15.4904 29.0672C15.5983 28.8083 15.6538 28.5305 15.6538 28.25C15.6538 27.9695 15.5983 27.6917 15.4904 27.4328C15.3825 27.1738 15.2244 26.9388 15.0252 26.7412L5.25024 17.0087C5.05106 16.8112 4.89298 16.5762 4.78509 16.3172C4.67721 16.0583 4.62167 15.7805 4.62167 15.5C4.62167 15.2195 4.67721 14.9417 4.78509 14.6828C4.89298 14.4238 5.05106 14.1888 5.25024 13.9912L15.0252 4.25874C15.4254 3.86142 15.6513 3.32141 15.6533 2.75751C15.6553 2.19361 15.4332 1.65202 15.0359 1.25187C14.6385 0.851725 14.0985 0.625803 13.5346 0.623812C12.9707 0.621819 12.4291 0.84392 12.029 1.24125L2.27524 10.995C1.08141 12.1903 0.410845 13.8106 0.410845 15.5C0.410845 17.1894 1.08141 18.8097 2.27524 20.005Z" fill="#326BD7"/>
</svg>
