<svg width="35" height="35" viewBox="0 0 35 35" fill="none" xmlns="http://www.w3.org/2000/svg">
<g clip-path="url(#clip0_73_284)">
<path d="M23.4221 11.5777C22.5681 10.7232 21.183 10.7227 20.3285 11.5768C20.3281 11.5771 20.3278 11.5774 20.3274 11.5777L17.4998 14.4069L14.6721 11.5777C13.8175 10.7232 12.432 10.7232 11.5775 11.5777C10.723 12.4323 10.723 13.8178 11.5775 14.6723L14.4066 17.5L11.5774 20.3277C10.7229 21.1823 10.7229 22.5678 11.5774 23.4223C12.432 24.2768 13.8175 24.2768 14.672 23.4223L17.4998 20.5932L20.3274 23.4223C21.182 24.2769 22.5675 24.2769 23.422 23.4223C24.2766 22.5678 24.2766 21.1823 23.422 20.3278L20.5929 17.5L23.4221 14.6723C24.2766 13.8183 24.277 12.4333 23.423 11.5787C23.4227 11.5784 23.4224 11.5781 23.4221 11.5777Z" fill="#EA1212" fill-opacity="0.8"/>
<path d="M17.5 0C7.83501 0 0 7.83501 0 17.5C0 27.165 7.83501 35 17.5 35C27.165 35 35 27.165 35 17.5C34.9895 7.83932 27.1607 0.010459 17.5 0ZM17.5 30.625C10.2512 30.625 4.375 24.7488 4.375 17.5C4.375 10.2512 10.2512 4.375 17.5 4.375C24.7488 4.375 30.625 10.2512 30.625 17.5C30.6169 24.7454 24.7454 30.6169 17.5 30.625Z" fill="#EA1212" fill-opacity="0.8"/>
</g>
<defs>
<clipPath id="clip0_73_284">
<rect width="35" height="35" fill="white"/>
</clipPath>
</defs>
</svg>
